<svg width="511" height="145" viewBox="0 0 511 145" fill="none" xmlns="http://www.w3.org/2000/svg">
<path d="M26.2679 0.503798C15.8209 4.8798 4.33791 17.2268 0.710914 32.7368C-3.88309 52.3818 15.2309 60.6918 16.7999 57.9708C18.6449 54.7698 13.3749 53.6878 12.2899 43.4938C10.8879 30.3278 17.0089 15.6168 24.7129 9.1618C26.1429 7.9618 26.0759 9.6318 26.0759 12.7188C26.0759 18.2398 25.7709 67.8038 25.7709 78.1478C25.7709 92.1438 25.1929 96.5638 24.1539 100.932C23.1029 105.357 21.4109 108.348 22.6919 109.5C24.1239 110.788 30.2379 107.723 33.7769 102.784C38.0209 96.8598 39.5069 89.7438 39.7739 82.0188C40.0959 72.7048 40.0819 57.9248 40.0959 49.4948C40.1079 41.7638 40.2259 19.1248 39.9599 5.5148C39.8949 2.1748 30.6369 -1.3272 26.2679 0.503798ZM397.211 66.0068C396.874 73.2838 395.263 78.9708 393.264 82.9828C389.394 90.7498 381.364 93.1608 377.954 81.9968C376.096 75.9108 376.009 65.7468 377.344 57.2538C378.704 48.6028 382.502 42.0688 388.789 42.6578C394.991 43.2408 397.894 51.2308 397.211 66.0068ZM292.661 111.153C292.577 123.243 290.674 133.843 286.594 136.923C280.806 141.289 273.027 138.013 274.638 129.191C276.063 121.384 282.804 113.411 292.678 103.669C292.678 103.669 292.698 105.891 292.661 111.153ZM291.081 65.9358C290.727 72.5638 289.009 79.2208 287.134 82.9828C283.264 90.7498 275.176 93.1778 271.824 81.9968C269.532 74.3568 270.081 64.4708 271.214 58.2408C272.686 50.1578 276.254 42.6588 282.659 42.6588C288.887 42.6588 291.959 49.4918 291.081 65.9358ZM230.516 65.8358C230.136 72.8538 228.767 78.7208 226.57 82.9828C222.594 90.6968 214.728 93.1428 211.26 81.9968C208.759 73.9598 209.61 63.0018 210.65 57.0818C212.194 48.2968 216.06 42.0688 222.095 42.6588C228.294 43.2648 231.307 51.2318 230.516 65.8358ZM508.069 74.0338C506.554 74.0338 505.862 75.5958 505.289 78.2238C503.306 87.3678 501.219 89.4308 498.53 89.4308C495.525 89.4308 492.825 84.9048 492.13 75.8428C491.585 68.7168 491.673 55.5988 492.37 42.5498C492.513 39.8688 491.773 37.2158 484.582 34.6038C481.488 33.4798 476.99 31.8248 474.75 37.2308C468.423 52.5048 465.947 64.6308 465.364 69.5548C465.334 69.8098 465.021 69.8628 464.967 69.2668C464.595 65.3218 463.766 58.1518 463.662 43.0898C463.642 40.1508 463.02 37.6498 459.776 35.6018C457.671 34.2718 451.28 31.9218 448.979 34.7188C446.985 37.0048 444.675 43.1588 442.276 50.4548C440.326 56.3848 438.968 60.3948 438.968 60.3948C438.968 60.3948 438.994 44.3968 439.017 38.3278C439.027 36.0388 437.457 35.2758 436.983 35.1378C434.853 34.5198 430.653 33.4868 428.871 33.4868C426.671 33.4868 426.133 34.7148 426.133 36.5068C426.133 36.7418 425.786 57.5698 425.786 72.1338C425.786 72.7668 425.786 73.4568 425.789 74.1908C424.573 80.8848 420.628 89.9708 416.338 89.9708C412.042 89.9708 410.016 86.1728 410.016 68.8098C410.016 58.6808 410.32 54.2758 410.469 46.9498C410.556 42.7298 410.724 39.4898 410.714 38.7548C410.682 36.4998 406.784 35.3628 404.969 34.9428C403.146 34.5198 401.562 34.3548 400.325 34.4258C398.574 34.5258 397.335 35.6728 397.335 37.2528C397.335 38.1008 397.345 39.7108 397.345 39.7108C395.09 36.1668 391.463 33.7008 389.05 32.9858C382.55 31.0558 375.768 32.7658 370.652 39.9248C366.586 45.6118 364.135 52.0548 363.17 61.3098C362.465 68.0768 362.695 74.9378 363.949 80.7408C362.434 87.2888 359.623 89.9708 356.544 89.9708C352.074 89.9708 348.834 82.6768 349.21 70.0588C349.458 61.7598 351.119 55.9358 352.934 47.5098C353.708 43.9178 353.079 42.0378 351.502 40.2358C350.055 38.5828 346.972 37.7378 342.542 38.7758C339.386 39.5168 334.873 40.3138 330.744 40.9258C330.744 40.9258 330.994 39.9308 331.198 38.1788C332.272 28.9888 322.285 29.7338 319.098 32.6688C317.197 34.4218 315.902 36.4888 315.411 40.2048C314.631 46.1028 319.441 48.8848 319.441 48.8848C317.864 56.1088 313.995 65.5448 310.001 72.3678C307.862 76.0228 306.226 78.7318 304.113 81.6108C304.044 70.057 304.119 58.5027 304.339 46.9508C304.426 42.7308 304.595 39.5768 304.586 38.8408C304.562 37.1928 303.599 36.5688 301.596 35.7808C299.824 35.0828 297.73 34.6008 295.557 34.4308C292.815 34.2188 291.163 35.6718 291.207 37.3918C291.215 37.7168 291.215 39.7108 291.215 39.7108C288.96 36.1668 285.333 33.7008 282.92 32.9858C276.42 31.0558 269.638 32.7658 264.522 39.9248C260.457 45.6118 257.795 53.5938 257.04 61.2398C256.338 68.3648 256.467 74.4198 257.425 79.5218C256.392 84.6298 253.42 89.9718 250.061 89.9718C245.765 89.9718 243.321 86.1728 243.321 68.8098C243.321 58.6808 243.625 54.2758 243.775 46.9498C243.862 42.7308 244.029 39.4898 244.02 38.7548C243.988 36.4998 240.089 35.3638 238.274 34.9428C236.376 34.5028 234.737 34.3428 233.478 34.4358C231.818 34.5588 230.65 36.0458 230.65 37.1548V39.7108C228.395 36.1668 224.768 33.7008 222.355 32.9858C215.855 31.0558 209.111 32.7938 203.957 39.9248C200.597 44.5738 197.876 49.7278 196.476 61.1378C196.071 64.4348 195.892 67.5238 195.916 70.4088C194.576 78.6048 188.656 88.0508 183.815 88.0508C180.982 88.0508 178.283 82.5548 178.283 70.8438C178.283 55.2438 179.249 33.0318 179.413 30.8918C179.413 30.8918 185.53 30.7878 186.714 30.7738C189.766 30.7398 192.529 30.8128 196.594 30.6038C198.632 30.5008 200.596 23.1838 198.492 22.2788C197.538 21.8688 190.799 21.5108 188.127 21.4538C185.881 21.4038 179.627 20.9398 179.627 20.9398C179.627 20.9398 180.188 6.1968 180.319 4.6398C180.429 3.3408 178.749 2.6728 177.787 2.2678C175.445 1.2778 173.35 0.802798 170.867 0.290798C167.435 -0.417202 165.879 0.275798 165.575 3.1708C165.117 7.5658 164.88 20.4388 164.88 20.4388C162.362 20.4388 153.76 19.9468 151.242 19.9468C148.902 19.9468 146.376 30.0108 149.612 30.1348C153.334 30.2788 159.821 30.4048 164.121 30.5328C164.121 30.5328 163.929 53.1108 163.929 60.0828C163.929 60.8228 163.933 61.5378 163.937 62.2308C161.57 74.5658 153.234 81.2298 153.234 81.2298C155.024 73.0688 151.367 66.9398 144.78 61.7518C142.353 59.8408 137.562 56.2218 132.202 52.2558C132.202 52.2558 135.306 49.1958 138.06 43.0398C140.01 38.6778 140.095 33.6888 135.306 32.5878C127.394 30.7678 120.871 36.5788 118.925 42.7828C117.417 47.5888 118.221 51.1538 121.175 54.8578C121.39 55.1288 121.625 55.4058 121.865 55.6838C120.08 59.1258 117.626 63.7608 115.548 67.3548C109.78 77.3348 105.423 85.2268 102.13 85.2268C99.4979 85.2268 99.5329 77.2128 99.5329 69.7098C99.5329 63.2418 100.011 53.5168 100.393 43.4498C100.519 40.1198 98.8529 38.2228 96.0629 36.5048C94.3669 35.4608 90.7479 33.4088 88.6519 33.4088C85.5139 33.4088 76.4619 33.8358 67.9099 58.5758C66.8319 61.6938 64.7139 67.3758 64.7139 67.3758L64.8969 37.6248C64.8969 36.9268 64.5249 36.2528 63.6739 35.7918C62.2329 35.0088 58.3839 33.4088 54.9609 33.4088C53.3309 33.4088 52.5159 34.1668 52.5159 35.6788L52.2179 82.2248C52.2179 85.7618 52.3099 89.8878 52.6599 91.6918C53.0079 93.4978 53.5729 94.9678 54.2709 95.8418C54.9699 96.7148 55.7769 97.3818 57.1079 97.6558C58.3469 97.9108 65.1309 98.7818 65.4839 96.1898C65.9059 93.0818 65.9229 89.7218 69.4849 77.1878C75.0309 57.6738 82.2609 48.1538 85.6609 44.7718C86.2559 44.1818 86.9339 44.1458 86.9009 45.1128C86.7569 49.3908 86.2459 60.0828 85.9029 69.1628C84.9819 93.4678 89.4029 97.9728 95.7219 97.9728C100.556 97.9728 107.37 93.1698 114.674 81.0118C118.744 74.2364 122.795 67.4497 126.827 60.6518C129.04 62.7008 131.525 64.9058 134.007 67.2618C139.777 72.7378 141.671 77.9418 140.414 82.8778C139.454 86.6508 135.833 90.5398 129.39 86.7608C127.512 85.6578 126.71 84.8048 124.822 83.5618C123.808 82.8948 122.259 82.6948 121.33 83.3948C118.918 85.2128 117.538 87.5268 116.75 90.3908C115.984 93.1778 118.775 94.6508 121.669 95.9398C124.16 97.0488 129.515 98.0538 132.929 98.1678C146.234 98.6128 156.893 91.7438 164.313 74.0248C165.641 89.3278 171.293 97.9868 181.114 97.9868C187.68 97.9868 194.263 89.4998 197.142 81.1508C197.968 84.5538 199.192 87.5138 200.772 90.0168C208.339 102.007 223.019 99.4268 230.393 89.2448C232.673 86.0988 233.02 84.9688 233.02 84.9688C234.096 94.5818 241.838 97.9408 246.27 97.9408C251.235 97.9408 256.36 95.5938 259.953 87.5058C260.374 88.3838 260.834 89.2228 261.336 90.0168C268.903 102.007 283.584 99.4268 290.958 89.2448C291.306 88.7668 291.608 88.3348 291.871 87.9448L292.087 94.2598L285.298 100.487C273.918 110.917 265.274 118.827 264.638 128.04C263.828 139.787 273.35 144.153 280.564 144.725C288.211 145.332 294.772 141.104 298.798 135.187C302.342 129.978 304.662 118.768 304.491 107.697C304.424 103.263 304.311 97.6258 304.224 91.5828C308.219 86.9438 312.72 81.0798 316.864 74.2178C321.38 66.7388 326.22 56.6948 328.698 48.8778C328.698 48.8778 332.903 48.9148 337.391 48.6208C338.826 48.5268 339.239 48.8208 338.973 49.8718C338.653 51.1438 333.303 71.7768 338.186 85.5218C341.527 94.9318 349.06 97.9578 353.526 97.9578C358.755 97.9578 363.756 94.0098 366.436 88.1478C366.76 88.8008 367.097 89.4328 367.466 90.0178C375.033 102.008 389.662 99.4108 397.088 89.2448C398.764 86.9508 399.715 84.9688 399.715 84.9688C401.308 94.9188 409.046 97.9918 413.478 97.9918C418.094 97.9918 422.476 96.0988 426.03 87.6878C426.18 91.3918 426.413 94.4198 426.782 95.3738C427.007 95.9588 428.319 96.6908 429.273 97.0448C433.497 98.6108 437.803 97.8708 439.397 97.5488C440.501 97.3248 441.362 96.4388 441.48 94.1528C441.79 88.1478 441.6 78.0588 443.42 70.5598C446.475 57.9768 449.326 53.0958 450.678 50.6798C451.435 49.3248 452.288 49.1018 452.319 50.5348C452.383 53.4348 452.527 61.9478 453.711 73.3878C454.581 81.7998 455.741 86.7728 456.634 88.3478C459.182 92.8478 462.327 93.0608 464.889 93.0608C466.519 93.0608 469.927 92.6108 469.622 89.7468C469.473 88.3508 469.733 79.7228 472.746 67.3258C474.713 59.2298 477.993 51.9158 479.176 49.2408C479.613 48.2548 479.816 49.0318 479.808 49.1838C479.559 54.7588 479 72.9948 481.271 82.9688C484.351 96.4798 493.257 97.9918 496.361 97.9918C502.987 97.9918 508.406 92.9518 510.231 79.6898C510.671 76.4978 510.02 74.0338 508.069 74.0338Z" fill="white"/>
</svg>
