<svg width="512" height="100" viewBox="0 0 512 100" fill="none" xmlns="http://www.w3.org/2000/svg">
<g clip-path="url(#clip0_35_38)">
<path d="M82.003 0C91.1333 1.5798 100.012 4.37005 108.405 8.297C122.889 29.927 130.085 54.322 127.428 82.46C116.346 90.746 105.597 95.773 95.028 99.063C92.4026 95.4556 90.0828 91.6353 88.093 87.642C91.8914 86.197 95.5527 84.4146 99.033 82.316C98.1225 81.6333 97.2299 80.927 96.356 80.198C75.551 90.048 52.672 90.048 31.616 80.198C30.75 80.928 29.854 81.638 28.938 82.316C32.413 84.409 36.0678 86.1877 39.859 87.631C37.8677 91.6239 35.5481 95.4444 32.924 99.053C22.365 95.763 11.626 90.736 0.543977 82.46C-1.72202 58.188 2.80698 33.566 19.516 8.317C27.9129 4.37751 36.7995 1.58032 45.939 0C47.086 2.056 48.445 4.822 49.361 7.022C59.024 5.542 68.777 5.542 78.621 7.022C79.6297 4.62603 80.7585 2.28239 82.003 0ZM335.936 31.687C342.981 31.687 348.829 33.197 353.48 36.22V49.39C351.84 48.238 349.926 47.303 347.742 46.583C345.558 45.863 343.222 45.503 340.726 45.503C336.358 45.503 332.946 46.316 330.48 47.95C328.013 49.585 326.777 51.713 326.777 54.355C326.777 56.945 327.973 59.064 330.369 60.729C332.766 62.384 336.237 63.217 340.797 63.217C343.142 63.217 345.457 62.867 347.742 62.179C350.017 61.479 351.98 60.626 353.62 59.619V72.356C348.457 75.523 342.468 77.106 335.653 77.106C329.917 77.086 325.024 76.078 320.988 74.063C316.953 72.048 313.902 69.313 311.869 65.859C309.836 62.405 308.809 58.519 308.809 54.201C308.809 49.883 309.866 46.018 311.979 42.615C314.093 39.212 317.193 36.539 321.281 34.595C325.366 32.653 330.248 31.687 335.936 31.687ZM283.019 31.677C286.964 31.677 290.578 32.108 293.871 32.972C297.161 33.836 299.879 34.936 302.044 36.282V47.581C299.828 46.234 297.291 45.175 294.394 44.373C291.487 43.5805 288.487 43.183 285.474 43.191C281.056 43.191 278.853 43.961 278.853 45.494C278.853 46.214 279.195 46.748 279.879 47.108C280.563 47.468 281.821 47.838 283.643 48.228L290.688 49.524C295.29 50.336 298.721 51.764 300.975 53.8C303.231 55.836 304.357 58.848 304.357 62.837C304.357 67.207 302.497 70.671 298.761 73.241C295.027 75.811 289.732 77.096 282.868 77.096C278.831 77.086 274.908 76.582 271.102 75.574C267.297 74.567 263.864 73.107 260.815 71.184V59.24C263.12 61.06 266.21 62.56 270.085 63.743C273.96 64.915 277.705 65.501 281.328 65.501C283.018 65.501 284.298 65.274 285.163 64.822C286.029 64.37 286.463 63.825 286.463 63.198C286.463 62.478 286.231 61.882 285.757 61.398C285.284 60.915 284.367 60.514 283.01 60.175L274.555 58.232C269.713 57.081 266.28 55.487 264.238 53.442C262.194 51.406 261.177 48.733 261.177 45.422C261.177 42.637 262.063 40.221 263.855 38.154C265.636 36.088 268.173 34.494 271.464 33.374C274.756 32.244 278.6 31.677 283.019 31.677ZM512 23.833V75.646H494.737V66.22C493.277 69.767 491.063 72.47 488.084 74.321C485.104 76.161 481.42 77.087 477.052 77.087C473.147 77.087 469.746 76.12 466.835 74.177C463.927 72.234 461.683 69.572 460.103 66.189C458.533 62.807 457.736 58.983 457.736 54.706C457.686 50.296 458.522 46.338 460.243 42.832C461.955 39.326 464.379 36.592 467.5 34.628C470.62 32.665 474.184 31.678 478.18 31.678C486.262 31.678 491.728 35.202 494.588 42.242L494.736 42.615V23.833H512ZM385.467 31.666C391.054 31.666 395.874 32.622 399.911 34.545C403.947 36.467 407.028 39.099 409.141 42.461C411.256 45.823 412.311 49.678 412.311 54.047C412.311 58.365 411.256 62.272 409.141 65.777C407.028 69.283 403.937 72.037 399.871 74.053C395.804 76.068 391.003 77.075 385.458 77.075C379.911 77.075 375.11 76.078 371.054 74.063C366.987 72.048 363.888 69.293 361.753 65.787C359.62 62.282 358.543 58.375 358.543 54.057C358.543 49.74 359.609 45.884 361.753 42.502C363.896 39.12 366.977 36.467 371.023 34.545C375.059 32.622 379.881 31.666 385.467 31.666ZM253.107 43.468V75.872H235.897V43.468C241.17 45.791 247.713 45.894 253.107 43.468ZM448.235 32.612C450.721 32.612 452.855 33.188 454.647 34.339V49.883C452.856 48.68 450.54 48.084 447.672 48.084C443.916 48.084 441.018 49.246 439.004 51.569C436.982 53.893 435.974 57.511 435.974 62.405V75.646H418.713V33.548H435.623V46.933C436.559 42.039 438.08 38.431 440.173 36.097C442.257 33.774 444.953 32.612 448.235 32.612ZM199.445 25.272C206.069 25.272 211.665 26.331 216.255 28.438C220.835 30.546 224.268 33.486 226.543 37.248C228.816 41.011 229.963 45.318 229.963 50.171C229.963 54.921 228.776 59.228 226.401 63.083C224.025 66.949 220.411 70.003 215.551 72.253C210.69 74.505 204.669 75.636 197.473 75.636H171.967V25.272H199.445ZM42.728 41.348C36.296 41.348 31.223 47.26 31.223 54.446C31.223 61.632 36.407 67.533 42.728 67.533C49.16 67.533 54.243 61.632 54.233 54.446C54.343 47.249 49.16 41.348 42.728 41.348ZM85.244 41.348C78.812 41.348 73.739 47.26 73.739 54.446C73.739 61.632 78.923 67.533 85.244 67.533C91.676 67.533 96.749 61.632 96.749 54.446C96.859 47.249 91.676 41.348 85.244 41.348ZM385.458 44.928C382.448 44.928 380.092 45.781 378.371 47.488C376.661 49.195 375.804 51.477 375.804 54.356C375.804 57.234 376.66 59.547 378.371 61.295C380.083 63.043 382.447 63.927 385.458 63.927C388.415 63.917 390.752 63.043 392.462 61.295C394.175 59.547 395.039 57.235 395.039 54.355C395.039 51.477 394.183 49.185 392.462 47.488C390.752 45.781 388.415 44.928 385.458 44.928ZM485.225 45.144C482.316 45.144 479.992 45.997 478.25 47.704C476.508 49.411 475.643 51.621 475.643 54.356C475.643 57.09 476.508 59.321 478.25 61.048C479.992 62.775 482.287 63.638 485.155 63.638C488.063 63.628 490.398 62.755 492.161 61.008C493.923 59.259 494.798 56.988 494.798 54.212C494.798 51.528 493.942 49.339 492.231 47.662C490.519 45.987 488.174 45.144 485.225 45.144ZM198.187 38.081H189.591V62.837H197.191C201.651 62.837 205.083 61.696 207.478 59.424C209.874 57.141 211.072 54.037 211.072 50.099C211.072 46.449 210.004 43.54 207.871 41.361C205.737 39.181 202.506 38.081 198.187 38.081ZM244.51 22.24C249.262 22.24 253.116 25.774 253.116 30.135C253.116 34.495 249.262 38.031 244.51 38.031C239.756 38.031 235.903 34.496 235.903 30.135C235.903 25.775 239.756 22.24 244.51 22.24Z" fill="#5865F2"/>
</g>
<defs>
<clipPath id="clip0_35_38">
<rect width="512" height="100" fill="white"/>
</clipPath>
</defs>
</svg>
